<svg id="Layer_1" data-name="Layer 1" xmlns="http://www.w3.org/2000/svg" xmlns:xlink="http://www.w3.org/1999/xlink" viewBox="0 0 100 100"><defs><style>.cls-1{fill:#fff;}.cls-2{fill:url(#linear-gradient);}</style><linearGradient id="linear-gradient" x1="1.59" y1="65.25" x2="126.97" y2="19.71" gradientUnits="userSpaceOnUse"><stop offset="0" stop-color="#ed1c24"/><stop offset="0.19" stop-color="#c11d23"/><stop offset="0.53" stop-color="#721e21"/><stop offset="1" stop-color="#851f20"/></linearGradient></defs><rect class="cls-1" width="100" height="100"/><path class="cls-2" d="M92.15,21.87a10.27,10.27,0,0,0-4.31-1.18A32,32,0,0,0,65.38,29.2a4.35,4.35,0,0,1-3.27,1.26c-2.86-.14-5.72-.39-8.57-.3-8,.27-16,.23-23.87,2C24,33.52,18.54,35.57,14.36,39.83,8.79,45.49,5.43,52.13,5,60.29c-.39,7.76,5.08,16,12.53,18.17,7.23,2.14,13.65,0,19.53-3.78,8-5.14,13.57-12.52,17.68-21,.44-.92,1.12-2.23,1.86-3.62h5.5V46.61H58.5c.86-1.56,1.58-2.82,1.85-3.2,1.1-1.58,2.39-3,3.42-4.64,2.08-3.27,3.83-4.65,8.21-4.54a63.68,63.68,0,0,0,11.93-.64,20,20,0,0,0,8.63-3C96,28.17,95.78,23.63,92.15,21.87ZM58.66,36.09c-1.49,1.81-3.8,5.15-5.61,7.8a27.23,27.23,0,0,0-1.45,2.72H45.07v3.48h4.84c-.41.83-.79,1.57-1.09,2.06-3.12,5.17-6.23,10.34-10.47,14.72-3.19,3.29-6.51,6.44-11.08,7.71-4.29,1.19-8.53,1.61-12.43-1.3A13.26,13.26,0,0,1,9.06,62.35c0-6.72,1.46-13.15,6.58-18.14.3-.3.65-.55,1-.83a14.67,14.67,0,0,1,2.89-2c1.13-.61,2.22-1.3,3.38-1.83,7-3.21,14.48-4.23,22-5,4.2-.43,8.41-.49,12.63-.52.61,0,1.42-.25,1.76.41S59,35.68,58.66,36.09Zm31-7a3.42,3.42,0,0,1-.43.21,20.21,20.21,0,0,1-3.8,1.48,23.21,23.21,0,0,1-5.83.46l-4.45,0H73a14.79,14.79,0,0,1-2.21,0,15,15,0,0,1,2-1.55c.71-.51,1.43-1,2.17-1.45a28.62,28.62,0,0,1,4.58-2.34,20.94,20.94,0,0,1,10.1-1.49,2.33,2.33,0,0,1,1.47.56,2.09,2.09,0,0,1,.4,1.49A3.2,3.2,0,0,1,91,28.15,3.42,3.42,0,0,1,89.7,29.11Z"/></svg>